<?xml version="1.0" encoding="utf-8"?>
<!-- Generator: Adobe Illustrator 15.0.0, SVG Export Plug-In . SVG Version: 6.00 Build 0)  -->
<!DOCTYPE svg PUBLIC "-//W3C//DTD SVG 1.1//EN" "http://www.w3.org/Graphics/SVG/1.1/DTD/svg11.dtd">
<svg version="1.1" id="Layer_2" xmlns="http://www.w3.org/2000/svg" xmlns:xlink="http://www.w3.org/1999/xlink" x="0px" y="0px"
	 width="510px" height="510px" viewBox="0 0 510 510" enable-background="new 0 0 510 510" xml:space="preserve">
<path fill="#FFFFFF" d="M510,454.867L454.864,510C485.315,510,510,485.316,510,454.867z"/>
<path fill="#FFFFFF" d="M454.864,0H55.135C24.684,0,0,24.685,0,55.135v399.732C0,485.316,24.684,510,55.135,510h179.189h220.54
	L510,454.867V277.646V55.135C510,24.685,485.315,0,454.864,0z M226.45,354.441c-23.63,9.844-106.335,5.908-141.779,5.908V293.4
	v-37.414v-33.478v-74.825h116.18c45.9,8.196,69.955,50.508,46.053,81.495c-4.809,6.234-11.549,12.013-20.454,16.96
	C275.676,254.016,273.705,332.781,226.45,354.441z M425.329,285.521l-1.97,3.939l-108.3-1.969c0,13.779,3.936,25.598,15.75,33.475
	c15.754,7.875,51.199,7.875,53.17-13.785l1.966-1.971h37.414c-3.936,47.26-39.38,57.109-80.735,55.139
	c-50.537-2.974-75.139-44.346-73.813-84.967c1.043-31.957,18.133-63.448,51.275-75.413c8.442-3.047,17.924-4.83,28.448-5.028
	c11.815,0,23.63,1.969,33.475,5.908C417.454,214.634,427.299,250.079,425.329,285.521z M393.824,187.066H307.18v-25.599h86.645
	V187.066z"/>
<path fill="#FFFFFF" d="M348.534,194.942c-10.524,0.199-20.006,1.981-28.448,5.028l0.88,0.879
	C328.844,196.911,338.689,196.911,348.534,194.942z"/>
<path fill="#FFFFFF" d="M226.45,246.139c8.905-4.947,15.645-10.726,20.454-16.96l-0.763-0.763
	C242.201,234.324,236.295,240.231,226.45,246.139z"/>
<path fill="#FFFFFF" d="M342.624,360.35c-50.04-3.337-74.643-44.826-73.813-84.967C267.485,316.004,292.087,357.376,342.624,360.35z
	"/>
<path fill="#FFFFFF" d="M350.505,226.449c-19.695,1.967-31.51,13.782-35.445,33.473h68.92
	C382.009,240.231,372.164,226.449,350.505,226.449z"/>
<path fill="#FFFFFF" d="M212.665,279.611c-9.845-21.66-47.26-13.779-78.765-13.779l-1.97,57.104c17.72,0,35.444,0,51.195,0
	C210.695,322.936,226.45,303.242,212.665,279.611z"/>
<path fill="#FFFFFF" d="M196.911,230.386c15.754,0,17.724-33.475,3.939-41.352c-15.755-7.875-57.105-3.938-66.95-3.938v47.26
	C145.715,232.356,191.005,234.324,196.911,230.386z"/>
</svg>
