<?xml version="1.0" encoding="utf-8"?>
<!-- Generator: Adobe Illustrator 15.0.0, SVG Export Plug-In . SVG Version: 6.00 Build 0)  -->
<!DOCTYPE svg PUBLIC "-//W3C//DTD SVG 1.1//EN" "http://www.w3.org/Graphics/SVG/1.1/DTD/svg11.dtd">
<svg version="1.1" id="Capa_1" xmlns="http://www.w3.org/2000/svg" xmlns:xlink="http://www.w3.org/1999/xlink" x="0px" y="0px"
	 width="510px" height="510px" viewBox="0 0 510 510" enable-background="new 0 0 510 510" xml:space="preserve">
<path fill="none" d="M935.656,246.781l136.063,155.5c0.438-2.094,1.281-4.063,1.281-6.281V140c0-3.313-0.938-6.313-1.875-9.313
	L935.656,246.781z"/>
<g>
	<path fill="#FFFFFF" d="M0,421.751V459c0,28.05,22.95,51,51,51h37.238c-23.282-1.574-43.432-10.83-60.421-27.819
		C10.825,465.192,1.571,445.04,0,421.751z"/>
	<path fill="#FFFFFF" d="M88.237,0H51C22.95,0,0,22.95,0,51v37.25c1.571-23.288,10.825-43.442,27.816-60.436
		C44.806,10.829,64.955,1.574,88.237,0z"/>
	<path fill="#FFFFFF" d="M510,88.258V51c0-28.05-22.95-51-51-51h-37.237c23.285,1.574,43.43,10.829,60.419,27.814
		C499.172,44.807,508.429,64.966,510,88.258z"/>
	<path fill="#FFFFFF" d="M421.597,510H459c28.05,0,51-22.95,51-51v-37.267c-1.571,23.288-10.828,43.445-27.82,60.438
		C465.156,499.202,444.949,508.46,421.597,510z"/>
	<path d="M-0.268,95.456v319.088c0,2.438,0.107,4.833,0.268,7.207V88.25C-0.16,90.623-0.268,93.018-0.268,95.456z"/>
	<path d="M340.095,510.257h74.453c2.385,0,4.727-0.104,7.049-0.257h-88.913C334.518,510.172,336.982,510.257,340.095,510.257z"/>
	<path d="M95.457,510.269h74.453c3.578,0,6.496-0.092,8.763-0.269H88.238C90.615,510.161,93.014,510.269,95.457,510.269z"/>
	<path d="M414.541-0.269H95.457c-2.443,0-4.842,0.108-7.22,0.269h333.526C419.385-0.161,416.984-0.269,414.541-0.269z"/>
	<path d="M510.268,95.456c0-2.436-0.107-4.828-0.268-7.198v333.476c0.16-2.373,0.268-4.768,0.268-7.205V95.456z"/>
	<path fill="#FFFFFF" d="M482.182,27.814C465.192,10.829,445.048,1.574,421.763,0H88.237c-23.282,1.574-43.431,10.829-60.42,27.814
		C10.825,44.808,1.571,64.962,0,88.25v333.501c1.571,23.289,10.825,43.441,27.816,60.43C44.806,499.17,64.956,508.426,88.238,510
		h90.435c0.818-0.063,1.558-0.139,2.204-0.225c2.436-0.337,4.87-1.778,7.311-4.327c2.439-2.547,3.654-6.26,3.654-11.133
		c0-0.661-0.059-8.204-0.167-22.605c-0.114-14.407-0.168-25.817-0.168-34.239l-7.645,1.331c-4.876,0.887-11.024,1.274-18.448,1.163
		c-7.421-0.11-15.122-0.885-23.099-2.326c-7.981-1.44-15.4-4.764-22.271-9.968c-6.867-5.212-11.741-12.024-14.621-20.441
		l-3.326-7.649c-2.216-5.091-5.703-10.744-10.469-16.944c-4.765-6.207-9.582-10.418-14.457-12.633l-2.328-1.662
		c-1.549-1.107-2.988-2.443-4.32-3.993c-1.328-1.554-2.324-3.106-2.988-4.652c-0.666-1.555-0.114-2.829,1.66-3.828
		c1.774-0.996,4.984-1.49,9.639-1.49l6.646,0.995c4.434,0.886,9.912,3.542,16.455,7.976c6.534,4.432,11.908,10.191,16.119,17.28
		c5.099,9.087,11.24,16.007,18.447,20.772c7.198,4.77,14.457,7.152,21.769,7.152c7.311,0,13.625-0.555,18.945-1.657
		c5.315-1.112,10.302-2.777,14.957-4.993c1.994-14.844,7.425-26.263,16.285-34.239c-12.63-1.33-23.985-3.322-34.071-5.983
		c-10.079-2.661-20.496-6.979-31.24-12.964c-10.75-5.984-19.668-13.401-26.759-22.271s-12.909-20.502-17.447-34.899
		c-4.542-14.407-6.812-31.029-6.812-49.862c0-26.81,8.755-49.637,26.26-68.47c-8.201-20.163-7.427-42.763,2.324-67.804
		c6.426-1.996,15.957-0.498,28.586,4.487c12.631,4.99,21.879,9.257,27.754,12.797c5.873,3.542,10.58,6.536,14.127,8.977
		c20.611-5.763,41.883-8.642,63.818-8.642c21.934,0,43.209,2.879,63.82,8.642l12.631-7.978c8.646-5.32,18.837-10.194,30.583-14.624
		c11.743-4.432,20.716-5.651,26.924-3.656c9.968,25.042,10.859,47.641,2.653,67.804c17.504,18.835,26.263,41.661,26.263,68.472
		c0,18.835-2.271,35.512-6.813,50.023c-4.539,14.513-10.407,26.151-17.615,34.902c-7.199,8.754-16.176,16.117-26.919,22.104
		c-10.748,5.98-21.164,10.308-31.248,12.96c-10.083,2.661-21.438,4.661-34.067,5.992c11.516,9.967,17.274,25.696,17.274,47.192
		v79.442c0,3.767,0.551,6.812,1.659,9.141c1.114,2.326,2.884,3.927,5.321,4.82c2.446,0.885,4.598,1.437,6.484,1.657
		c0.232,0.027,0.478,0.053,0.734,0.077h88.913c23.353-1.54,43.56-10.798,60.583-27.828c16.992-16.993,26.249-37.15,27.82-60.438
		V88.258C508.429,64.966,499.172,44.807,482.182,27.814z"/>
</g>
</svg>
