<?xml version="1.0" encoding="utf-8"?>
<!-- Generator: Adobe Illustrator 15.0.0, SVG Export Plug-In . SVG Version: 6.00 Build 0)  -->
<!DOCTYPE svg PUBLIC "-//W3C//DTD SVG 1.1//EN" "http://www.w3.org/Graphics/SVG/1.1/DTD/svg11.dtd">
<svg version="1.1" id="Capa_1" xmlns="http://www.w3.org/2000/svg" xmlns:xlink="http://www.w3.org/1999/xlink" x="0px" y="0px"
	 width="510px" height="510px" viewBox="0 0 510 510" enable-background="new 0 0 510 510" xml:space="preserve">
<path fill="none" d="M935.656,246.781l136.063,155.5c0.438-2.094,1.281-4.063,1.281-6.281V140c0-3.313-0.938-6.313-1.875-9.313
	L935.656,246.781z"/>
<path fill="#FFFFFF" d="M459,0H51C22.95,0,0,22.95,0,51v51v306v51c0,28.05,22.95,51,51,51h408c28.05,0,51-22.95,51-51v-51V102V51
	C510,22.95,487.05,0,459,0z M51,102h30.6L255,209.1L428.4,102H459v306h-51V183.6l-153,96.9l-153-96.9V408H51V102z"/>
</svg>
