<?xml version="1.0" encoding="utf-8"?>
<!-- Generator: Adobe Illustrator 15.0.0, SVG Export Plug-In . SVG Version: 6.00 Build 0)  -->
<!DOCTYPE svg PUBLIC "-//W3C//DTD SVG 1.1//EN" "http://www.w3.org/Graphics/SVG/1.1/DTD/svg11.dtd">
<svg version="1.1" id="Capa_1" xmlns="http://www.w3.org/2000/svg" xmlns:xlink="http://www.w3.org/1999/xlink" x="0px" y="0px"
	 width="438.536px" height="438.536px" viewBox="0 0 438.536 438.536" enable-background="new 0 0 438.536 438.536"
	 xml:space="preserve">
<g>
	<path fill="#1ABCFE" d="M219.268,219.268c0-40.365,32.723-73.088,73.086-73.088c40.365,0,73.087,32.723,73.087,73.088
		c0,40.363-32.722,73.086-73.087,73.086C251.991,292.354,219.268,259.631,219.268,219.268z"/>
	<path fill="#0ACF83" d="M73.095,365.44c0-40.364,32.722-73.086,73.086-73.086h73.086v73.086c0,40.363-32.722,73.088-73.086,73.088
		S73.095,405.803,73.095,365.44z"/>
	<path fill="#FF7262" d="M219.268,0.008V146.18h73.086c40.365,0,73.087-32.722,73.087-73.086S332.719,0.008,292.354,0.008H219.268z"
		/>
	<path fill="#F24E1E" d="M73.095,73.094c0,40.364,32.722,73.086,73.086,73.086h73.086V0.008h-73.086
		C105.816,0.008,73.095,32.73,73.095,73.094z"/>
	<path fill="#A259FF" d="M73.095,219.268c0,40.363,32.722,73.086,73.086,73.086h73.086V146.18h-73.086
		C105.816,146.18,73.095,178.903,73.095,219.268z"/>
</g>
</svg>
