<?xml version="1.0" ?><!DOCTYPE svg  PUBLIC '-//W3C//DTD SVG 1.1//EN'  'http://www.w3.org/Graphics/SVG/1.1/DTD/svg11.dtd'><svg height="176.389mm" style="shape-rendering:geometricPrecision; text-rendering:geometricPrecision; image-rendering:optimizeQuality; fill-rule:evenodd; clip-rule:evenodd" version="1.1" viewBox="0 0 17639 17639" width="176.389mm" xml:space="preserve" xmlns="http://www.w3.org/2000/svg" xmlns:xlink="http://www.w3.org/1999/xlink"><defs><style type="text/css">
   <![CDATA[
    .fil1 {fill:#252653}
    .fil0 {fill:#E4469C}
    .fil2 {fill:#E4469C}
   ]]>
  </style></defs><g id="Layer_x0020_1"><rect class="fil0" height="15357" width="15452" x="1094" y="1141"/><rect class="fil1" height="12783" width="12862" x="2389" y="2428"/><rect class="fil0" height="7081" rx="58" ry="58" width="1393" x="5497" y="5245"/><path class="fil2" d="M10641 7943l0 3309c-1188,88 -1655,-752 -1672,-1609 -7,-367 65,-739 205,-1038 280,-597 880,-703 1467,-662zm1463 3686l0 -6413 -1509 -29 -12 1596c0,5 -48,-1 -58,0 -183,16 -966,-122 -1741,406 -639,435 -1228,1073 -1248,2496 -24,1716 1081,2684 2666,2763 456,22 942,-38 1368,-210 85,-34 227,-94 349,-151 173,-81 260,-139 208,-317l-23 -141z"/></g></svg>