<?xml version="1.0" encoding="utf-8"?>
<!-- Generator: Adobe Illustrator 15.0.0, SVG Export Plug-In . SVG Version: 6.00 Build 0)  -->
<!DOCTYPE svg PUBLIC "-//W3C//DTD SVG 1.1//EN" "http://www.w3.org/Graphics/SVG/1.1/DTD/svg11.dtd">
<svg version="1.1" id="Capa_1" xmlns="http://www.w3.org/2000/svg" xmlns:xlink="http://www.w3.org/1999/xlink" x="0px" y="0px"
	 width="438.536px" height="438.536px" viewBox="0 0 438.536 438.536" enable-background="new 0 0 438.536 438.536"
	 xml:space="preserve">
<path fill="#FF2A63" d="M398.78,0.006H39.759c-21.954,0-39.751,17.798-39.751,39.752v359.017c0,21.957,17.798,39.755,39.751,39.755
	h359.017c21.953,0,39.752-17.798,39.752-39.751V39.758C438.531,17.804,420.733,0.006,398.78,0.006z M146.563,85.189
	c14.578,0,26.788,11.423,26.788,26.387c0,14.976-12.21,26.4-26.788,26.4s-26.788-11.425-26.788-26.4
	C119.776,96.612,131.986,85.189,146.563,85.189z M325.783,337.697c-27.182,0-40.181-16.14-40.181-38.21
	c0-6.297,0.785-12.998,2.756-19.695l13.001-46.483c1.575-5.126,1.97-9.847,1.97-14.185c0-14.965-9.059-24.029-23.635-24.029
	c-18.518,0-30.729,13.293-37.031,38.898l-25.215,101.135h-44.121l7.918-31.782c-12.968,21.302-30.981,34.498-53.199,34.498
	c-26.787,0-39.395-15.434-39.395-38.678c0-5.899,0.792-13.133,2.364-19.83l20.093-82.083H79.987l9.456-34.883h74.854
	l-29.549,117.209c-1.97,7.493-2.758,13.704-2.758,18.031c0,7.495,3.689,9.685,9.459,10.986c3.512,0.784,31.508,0.236,46.75-33.643
	l19.405-77.701h-31.519l9.456-34.883h67.364l-8.664,39.604c11.816-22.063,35.456-43.027,58.697-43.027
	c24.818,0,45.306,17.682,45.306,51.562c0,8.664-1.186,18.092-4.335,28.727l-12.61,45.287c-1.179,4.738-1.97,8.672-1.97,12.217
	c0,7.877,3.151,11.813,9.062,11.813s13.396-4.341,22.063-28.36l17.332,6.691C367.542,322.736,349.024,337.697,325.783,337.697z"/>
</svg>
