<?xml version="1.0" encoding="utf-8"?>
<!-- Generator: Adobe Illustrator 15.0.0, SVG Export Plug-In . SVG Version: 6.00 Build 0)  -->
<!DOCTYPE svg PUBLIC "-//W3C//DTD SVG 1.1//EN" "http://www.w3.org/Graphics/SVG/1.1/DTD/svg11.dtd">
<svg version="1.1" id="Layer_1" xmlns="http://www.w3.org/2000/svg" xmlns:xlink="http://www.w3.org/1999/xlink" x="0px" y="0px"
	 width="500px" height="500px" viewBox="0 0 500 500" enable-background="new 0 0 500 500" xml:space="preserve">
<g>
	<path fill="#FFD600" d="M30.656,469.344V30.656h438.688v438.688H30.656z"/>
	<path fill="#000001" d="M317.484,359.026c8.432,13.695,17.598,26.82,37.009,26.82c16.304,0,24.859-8.104,24.859-19.313
		c0-13.418-8.848-18.183-26.785-25.994l-9.835-4.191c-28.38-12.039-47.256-27.125-47.256-58.99
		c0-29.369,22.482-51.718,57.614-51.718c25.019,0,42.991,8.665,55.956,31.354l-30.635,19.583
		c-6.737-12.04-14.024-16.779-25.321-16.779c-11.527,0-18.826,7.274-18.826,16.779c0,11.747,7.312,16.499,24.188,23.774l9.836,4.192
		c33.448,14.244,52.313,28.795,52.313,61.502c0,35.24-27.834,54.556-65.194,54.556c-36.545,0-57.298-18.341-68.85-41.042
		L317.484,359.026z M176.301,360.025c6.166,11.04,15.537,19.534,29.014,19.534c12.894,0,20.314-5.094,20.314-24.896V225.629h40.614
		v135.273c0,41.029-23.798,59.699-58.552,59.699c-31.403,0-54.068-21.277-63.305-41.042L176.301,360.025z"/>
</g>
</svg>
