<?xml version="1.0" encoding="utf-8"?>
<!-- Generator: Adobe Illustrator 15.0.0, SVG Export Plug-In . SVG Version: 6.00 Build 0)  -->
<!DOCTYPE svg PUBLIC "-//W3C//DTD SVG 1.1//EN" "http://www.w3.org/Graphics/SVG/1.1/DTD/svg11.dtd">
<svg version="1.1" id="Capa_1" xmlns="http://www.w3.org/2000/svg" xmlns:xlink="http://www.w3.org/1999/xlink" x="0px" y="0px"
	 width="438.536px" height="438.536px" viewBox="0 0 438.536 438.536" enable-background="new 0 0 438.536 438.536"
	 xml:space="preserve">
<g>
	<g>
		<path fill="#EB7077" stroke="#EB7077" stroke-width="0.1607" d="M108.288,114.005c1.588-2.7,3.654-5.294,6.618-6.565
			c1.218-0.211,2.436-0.106,3.654-0.106h59.938c-1.747,1.482-3.441,3.018-4.604,5.03c-3.072,5.03-5.138,10.643-7.044,16.255
			c-5.401,16.943-9.16,34.364-12.813,51.784c-1.641,7.89-3.23,15.832-4.712,23.721c-4.553,25.839-9.267,51.626-15.144,77.199
			c-2.807,11.809-5.666,23.614-10.008,35c-2.012,4.713-3.971,9.743-7.836,13.236c-0.9,0.795-1.8,1.801-3.071,1.643H60.317
			c-3.601-0.106-7.148,0.213-10.749-0.159c2.383-1.854,4.501-4.077,5.877-6.725c3.971-7.572,6.46-15.778,8.843-23.934
			c3.707-13.13,6.671-26.421,9.477-39.712c1.748-8.735,3.813-17.42,5.083-26.209c1.429-9.795,3.6-19.486,5.348-29.228
			c2.753-14.35,5.666-28.698,8.895-42.942c2.595-11.119,5.242-22.186,8.791-33.04C103.629,124.012,105.534,118.823,108.288,114.005z
			"/>
		<path fill="#F6A2AD" stroke="#F6A2AD" stroke-width="0.1607" d="M178.498,107.333c1.538,0,3.07-0.053,4.608,0
			c3.389,1.8,6.248,4.66,7.836,8.207c2.117,4.025,3.865,8.261,5.452,12.603c5.295,16.361,8.896,33.199,12.498,49.983
			c3.071,15.037,5.982,30.127,8.735,45.271c0.213,0.796-0.053,1.907,1.007,2.118c-3.813,19.909-7.573,39.87-12.337,59.62
			c-2.596,10.644-5.349,21.232-9.267,31.505c-2.118,5.136-4.29,10.748-8.79,14.402c-2.86,0.636-4.925-1.535-6.673-3.495
			c-3.018-3.866-4.869-8.419-6.67-12.972c-5.983-16.31-9.636-33.305-13.342-50.25c-2.806-13.183-5.294-26.474-7.89-39.711
			c-1.166-6.724-2.753-13.343-3.654-20.068c-0.159-0.105-0.529-0.317-0.688-0.423c1.481-7.89,3.071-15.831,4.712-23.721
			c3.653-17.42,7.412-34.84,12.813-51.784c1.906-5.613,3.972-11.225,7.044-16.255C175.056,110.351,176.75,108.816,178.498,107.333z"
			/>
		<path fill="#EB7077" stroke="#EB7077" stroke-width="0.1607" d="M244.737,116.494c1.906-3.653,4.235-7.73,8.367-9.107
			c21.019-0.106,42.039-0.053,63.061-0.053c-1.959,1.959-4.023,3.918-5.348,6.407c-4.077,7.307-6.46,15.408-8.897,23.403
			c-6.245,22.027-10.643,44.53-14.824,67.034c-3.865,22.186-7.994,44.371-12.706,66.451c-2.438,11.118-4.978,22.185-8.208,33.146
			c-2.066,6.776-4.236,13.608-7.626,19.907c-1.641,2.86-3.546,5.985-6.67,7.466c-20.067,0.16-40.188,0-60.257,0.055
			c-1.112,0-2.275,0-3.387-0.159c4.5-3.654,6.672-9.267,8.79-14.402c3.918-10.272,6.67-20.861,9.267-31.505
			c4.764-19.75,8.524-39.711,12.337-59.62c4.607-25.68,9.423-51.36,15.566-76.723C237.059,137.832,239.812,126.713,244.737,116.494z
			"/>
		<path fill="#F6A2AD" stroke="#F6A2AD" stroke-width="0.1607" d="M316.165,107.333c1.694,0,3.441-0.053,5.136,0
			c2.753,1.43,4.712,3.865,6.46,6.354c2.859,4.554,4.658,9.689,6.514,14.719c4.394,13.502,7.676,27.375,10.694,41.248
			c4.024,18.69,7.52,37.487,10.961,56.285c0.845,4.499,1.692,9.054,2.224,13.608c0.213,0.211,0.635,0.635,0.794,0.793
			c-1.905,2.647-2.648,5.824-3.705,8.843c-3.337,10.749-5.508,21.867-7.361,32.936c-1.43,8.683-3.389,17.313-6.088,25.68
			c-2.014,6.194-4.448,12.336-8.474,17.525c-1.904,2.488-4.5,4.396-7.358,5.664c-4.396,0.479-6.989-3.759-9.108-6.881
			c-4.394-7.68-6.777-16.256-9.319-24.622c-8.365-30.977-13.817-62.69-19.695-94.196c-0.052-0.477-0.317-0.9-0.742-1.111
			c4.182-22.504,8.579-45.007,14.824-67.034c2.438-7.995,4.82-16.097,8.897-23.403C312.141,111.251,314.206,109.292,316.165,107.333
			z"/>
		<path fill="#F6A2AD" stroke="#F6A2AD" stroke-width="0.1607" d="M0.008,227.792c1.377-0.107,2.754-0.318,4.183-0.318h57.714
			c2.436,0.318,4.978,0.106,7.307,1.166c3.389,1.376,6.407,3.705,8.631,6.617c0.264-0.157,0.741-0.583,1.006-0.794
			c-1.271,8.789-3.336,17.474-5.083,26.209c-2.806,13.291-5.771,26.582-9.477,39.712c-2.383,8.155-4.872,16.361-8.843,23.934
			c-1.376,2.647-3.495,4.87-5.877,6.725c-0.899,0.159-1.588-0.476-2.33-0.952c-2.488-1.59-3.918-4.343-5.453-6.831
			c-7.254-16.52-8.048-34.788-12.549-52.048c-2.277-8.632-5.083-17.21-9.213-25.152c-2.541-4.766-5.666-9.318-9.743-12.973
			C7.262,230.651,3.768,228.692,0.008,227.792z"/>
		<path fill="#EB7077" stroke="#EB7077" stroke-width="0.1607" d="M363.606,233.298c3.337-3.759,8.313-6.142,13.343-5.932h43.418
			c6.038,0.107,12.126-0.21,18.161,0.161c-1.799,1.217-3.97,1.694-5.877,2.699c-6.618,3.018-12.284,8.048-15.884,14.351
			c-5.771,10.06-7.783,21.604-9.478,32.933c-1.694,11.12-1.642,22.61-5.241,33.412c-2.438,7.571-6.144,15.195-12.55,20.173
			c-19.909,0.212-39.816,0.052-59.672,0.106c-1.326,0-2.595,0.052-3.866-0.214c2.858-1.269,5.454-3.176,7.358-5.664
			c4.025-5.189,6.46-11.331,8.474-17.525c2.699-8.366,4.658-16.997,6.088-25.68c1.854-11.068,4.024-22.187,7.361-32.936
			c1.057-3.019,1.8-6.195,3.705-8.843C360.536,238.01,361.594,235.311,363.606,233.298z"/>
	</g>
</g>
</svg>
