<?xml version="1.0" encoding="utf-8"?>
<!-- Generator: Adobe Illustrator 15.0.0, SVG Export Plug-In . SVG Version: 6.00 Build 0)  -->
<!DOCTYPE svg PUBLIC "-//W3C//DTD SVG 1.1//EN" "http://www.w3.org/Graphics/SVG/1.1/DTD/svg11.dtd">
<svg version="1.1" id="Layer_1" xmlns="http://www.w3.org/2000/svg" xmlns:xlink="http://www.w3.org/1999/xlink" x="0px" y="0px"
	 width="500px" height="500px" viewBox="0 0 500 500" enable-background="new 0 0 500 500" xml:space="preserve">
<g>
	<path fill="#53C1DE" d="M391.795,200.134c-4.684-1.607-9.407-3.095-14.166-4.464c0.789-3.206,1.518-6.428,2.188-9.663
		c10.723-52.056,3.713-93.992-20.231-107.797c-22.957-13.24-60.504,0.565-98.424,33.564c-3.736,3.259-7.39,6.612-10.957,10.055
		c-2.39-2.29-4.82-4.535-7.292-6.735c-39.741-35.287-79.577-50.154-103.495-36.309c-22.936,13.277-29.729,52.703-20.075,102.036
		c0.962,4.886,2.046,9.747,3.253,14.577c-5.637,1.6-11.079,3.307-16.288,5.122c-46.591,16.243-76.347,41.702-76.347,68.109
		c0,27.274,31.94,54.63,80.472,71.216c3.936,1.339,7.903,2.58,11.901,3.72c-1.3,5.204-2.452,10.443-3.458,15.713
		c-9.205,48.477-2.016,86.967,20.858,100.161c23.627,13.624,63.281-0.379,101.896-34.131c3.052-2.668,6.115-5.498,9.182-8.465
		c3.864,3.728,7.832,7.348,11.897,10.854c37.402,32.186,74.341,45.182,97.196,31.951c23.605-13.664,31.274-55.014,21.314-105.323
		c-0.76-3.842-1.646-7.768-2.639-11.764c2.785-0.821,5.518-1.671,8.183-2.556c50.452-16.715,83.275-43.737,83.275-71.376
		C470.039,242.127,439.326,216.497,391.795,200.134L391.795,200.134z"/>
	<path fill="#FFFFFF" d="M380.852,322.161c-2.405,0.796-4.875,1.565-7.391,2.312c-5.57-17.632-13.089-36.382-22.284-55.751
		c8.776-18.912,16.004-37.42,21.417-54.939c4.502,1.305,8.872,2.678,13.083,4.129c40.725,14.017,65.564,34.746,65.564,50.717
		c0,17.012-26.829,39.099-70.388,53.532H380.852z M362.778,357.976c4.403,22.246,5.032,42.359,2.114,58.083
		c-2.621,14.127-7.892,23.546-14.409,27.318c-13.868,8.027-43.528-2.407-75.513-29.931c-3.667-3.154-7.361-6.525-11.066-10.088
		c12.401-13.564,24.794-29.332,36.889-46.841c21.275-1.888,41.375-4.975,59.604-9.188
		C361.291,350.952,362.09,354.502,362.778,357.976L362.778,357.976z M179.992,441.99c-13.549,4.786-24.341,4.922-30.863,1.161
		c-13.883-8.004-19.651-38.914-11.781-80.369c0.937-4.898,2.007-9.771,3.213-14.61c18.025,3.986,37.979,6.855,59.307,8.584
		c12.174,17.134,24.925,32.882,37.775,46.674c-2.73,2.642-5.526,5.216-8.385,7.72c-17.074,14.928-34.186,25.514-49.263,30.841
		H179.992z M116.514,322.056c-21.459-7.335-39.181-16.866-51.328-27.267c-10.914-9.349-16.427-18.629-16.427-26.16
		c0-16.023,23.893-36.465,63.739-50.356c5.001-1.737,10.052-3.326,15.146-4.767c5.508,17.913,12.731,36.641,21.449,55.58
		c-8.831,19.221-16.158,38.247-21.716,56.37C123.729,324.412,120.106,323.278,116.514,322.056z M137.794,177.211
		c-8.272-42.27-2.78-74.155,11.042-82.156c14.725-8.522,47.279,3.631,81.593,34.098c2.193,1.948,4.396,3.987,6.603,6.096
		c-12.784,13.729-25.418,29.358-37.487,46.393c-20.699,1.918-40.512,5-58.726,9.127c-1.122-4.494-2.131-9.015-3.024-13.559V177.211z
		 M327.623,224.084c-4.303-7.431-8.764-14.769-13.382-22.009c14.043,1.773,27.494,4.129,40.126,7.013
		c-3.791,12.155-8.519,24.866-14.085,37.895C336.215,239.268,331.995,231.632,327.623,224.084L327.623,224.084z M250.211,148.684
		c8.671,9.393,17.355,19.883,25.897,31.263c-17.327-0.819-34.685-0.823-52.014-0.011
		C232.646,168.661,241.403,158.186,250.211,148.684L250.211,148.684z M172.302,224.213c-4.317,7.488-8.459,15.076-12.422,22.758
		c-5.476-12.985-10.159-25.752-13.984-38.08c12.557-2.811,25.946-5.107,39.896-6.85
		C181.123,209.325,176.625,216.718,172.302,224.213z M186.193,336.557c-14.412-1.608-28.004-3.787-40.557-6.52
		c3.885-12.546,8.673-25.588,14.265-38.851c3.979,7.686,8.14,15.279,12.476,22.771C176.803,321.6,181.41,329.135,186.193,336.557z
		 M250.73,389.901c-8.91-9.615-17.798-20.249-26.478-31.688c8.425,0.331,17.016,0.497,25.747,0.497
		c8.972,0,17.839-0.199,26.565-0.589C267.997,369.768,259.344,380.418,250.73,389.901z M340.462,290.51
		c5.882,13.408,10.84,26.379,14.778,38.713c-12.76,2.912-26.537,5.258-41.051,6.998c4.65-7.374,9.156-14.841,13.51-22.394
		C332.126,306.15,336.381,298.376,340.462,290.51L340.462,290.51z M311.413,304.436c-6.667,11.58-13.708,22.941-21.112,34.063
		c-13.057,0.933-26.55,1.415-40.301,1.415c-13.692,0-27.016-0.427-39.845-1.259c-7.597-11.097-14.771-22.478-21.507-34.116
		c-6.706-11.578-12.969-23.405-18.775-35.459c5.793-12.057,12.036-23.891,18.72-35.478v0.004
		c6.679-11.589,13.796-22.921,21.337-33.971c13.088-0.989,26.508-1.506,40.072-1.506c13.626,0,27.063,0.521,40.146,1.519
		c7.465,11.033,14.537,22.324,21.205,33.856c6.705,11.561,13.031,23.337,18.971,35.31
		C324.445,280.908,318.139,292.79,311.413,304.436L311.413,304.436z M350.196,94.497c14.736,8.499,20.468,42.771,11.209,87.716
		c-0.608,2.928-1.268,5.845-1.979,8.75c-18.257-4.212-38.084-7.349-58.841-9.296c-12.093-17.219-24.623-32.875-37.2-46.428
		c3.295-3.177,6.671-6.272,10.119-9.282C305.995,97.681,336.36,86.517,350.196,94.497L350.196,94.497z"/>
	<path fill="#53C1DE" d="M250,229.332c21.704,0,39.298,17.594,39.298,39.297c0,21.703-17.594,39.299-39.298,39.299
		c-21.702,0-39.297-17.596-39.297-39.299C210.703,246.925,228.298,229.332,250,229.332"/>
</g>
</svg>
